<svg width="1062" height="408" viewBox="0 0 1062 408" fill="none" xmlns="http://www.w3.org/2000/svg">
<rect x="39" y="40" width="239" height="249" rx="37" fill="#0084F1"/>
<rect x="93" y="277" width="18" height="53" rx="9" fill="#0084F1"/>
<rect y="96" width="63" height="17" rx="8.5" fill="#0084F1"/>
<rect y="136" width="63" height="17" rx="8.5" fill="#0084F1"/>
<rect y="174" width="63" height="17" rx="8.5" fill="#0084F1"/>
<rect y="214" width="63" height="17" rx="8.5" fill="#0084F1"/>
<rect x="254" y="96" width="63" height="17" rx="8.5" fill="#0084F1"/>
<rect x="254" y="136" width="63" height="17" rx="8.5" fill="#0084F1"/>
<rect x="254" y="174" width="63" height="17" rx="8.5" fill="#0084F1"/>
<rect x="254" y="214" width="63" height="17" rx="8.5" fill="#0084F1"/>
<rect x="132" y="277" width="18" height="53" rx="9" fill="#0084F1"/>
<rect x="171" y="277" width="18" height="53" rx="9" fill="#0084F1"/>
<rect x="209" y="277" width="18" height="53" rx="9" fill="#0084F1"/>
<rect x="92" width="18" height="53" rx="9" fill="#0084F1"/>
<rect x="131" width="18" height="53" rx="9" fill="#0084F1"/>
<rect x="170" width="18" height="53" rx="9" fill="#0084F1"/>
<rect x="208" width="18" height="53" rx="9" fill="#0084F1"/>
<ellipse cx="174.5" cy="109" rx="16.5" ry="17" fill="white"/>
<ellipse cx="103.5" cy="239" rx="16.5" ry="17" fill="white"/>
<ellipse cx="166.559" cy="234" rx="14.5588" ry="15" fill="white"/>
<ellipse cx="219.647" cy="112" rx="11.6471" ry="12" fill="white"/>
<path d="M213.5 154.5V118.5H226L227.5 161L173.5 211V228.5H159.5V204.5L213.5 154.5Z" fill="white"/>
<path d="M97 143.5V227L110.5 230.5V150L145 115H162V101.5H139L97 143.5Z" fill="white"/>
<ellipse cx="164" cy="170.515" rx="17" ry="17.5152" fill="white"/>
<path d="M163.5 163.5C167.352 163.5 170.5 166.722 170.5 170.728C170.5 174.733 167.352 177.954 163.5 177.954C159.648 177.954 156.5 174.733 156.5 170.728C156.5 166.722 159.648 163.5 163.5 163.5Z" fill="white" stroke="#0084F1"/>
<path d="M509.611 121.612H472.627C471.951 116.827 470.572 112.577 468.489 108.862C466.406 105.09 463.732 101.882 460.467 99.236C457.202 96.5903 453.431 94.5637 449.153 93.1564C444.931 91.7491 440.343 91.0455 435.389 91.0455C426.439 91.0455 418.642 93.269 412 97.7161C405.357 102.107 400.206 108.524 396.547 116.968C392.888 125.356 391.059 135.545 391.059 147.535C391.059 159.863 392.888 170.221 396.547 178.608C400.263 186.996 405.442 193.329 412.084 197.607C418.727 201.885 426.41 204.024 435.136 204.024C440.033 204.024 444.565 203.377 448.73 202.082C452.952 200.787 456.696 198.902 459.961 196.425C463.226 193.892 465.928 190.824 468.067 187.221C470.262 183.618 471.782 179.509 472.627 174.893L509.611 175.062C508.654 182.999 506.261 190.655 502.433 198.029C498.662 205.347 493.567 211.905 487.15 217.703C480.789 223.445 473.189 228.005 464.352 231.382C455.57 234.704 445.634 236.364 434.545 236.364C419.121 236.364 405.329 232.874 393.17 225.894C381.067 218.914 371.497 208.809 364.461 195.58C357.48 182.352 353.99 166.337 353.99 147.535C353.99 128.677 357.537 112.634 364.63 99.4049C371.722 86.1762 381.348 76.0998 393.508 69.1759C405.667 62.1956 419.346 58.7055 434.545 58.7055C444.565 58.7055 453.853 60.1128 462.409 62.9274C471.022 65.742 478.65 69.8514 485.292 75.2554C491.935 80.6032 497.339 87.1613 501.505 94.9296C505.726 102.698 508.428 111.592 509.611 121.612ZM571.124 159.019V234H535.153V61.0698H570.111V127.185H571.631C574.558 119.529 579.287 113.534 585.816 109.2C592.346 104.809 600.537 102.614 610.388 102.614C619.395 102.614 627.248 104.584 633.946 108.524C640.702 112.408 645.937 118.01 649.652 125.328C653.424 132.589 655.281 141.286 655.225 151.419V234H619.254V157.836C619.31 149.843 617.284 143.623 613.175 139.175C609.121 134.728 603.436 132.505 596.118 132.505C591.22 132.505 586.886 133.546 583.114 135.629C579.399 137.712 576.472 140.752 574.333 144.748C572.25 148.689 571.18 153.446 571.124 159.019ZM683.533 234V104.302H719.504V234H683.533ZM701.603 87.5835C696.255 87.5835 691.667 85.8103 687.839 82.2638C684.068 78.6611 682.182 74.3548 682.182 69.3447C682.182 64.391 684.068 60.1409 687.839 56.5945C691.667 52.9918 696.255 51.1904 701.603 51.1904C706.951 51.1904 711.51 52.9918 715.282 56.5945C719.11 60.1409 721.024 64.391 721.024 69.3447C721.024 74.3548 719.11 78.6611 715.282 82.2638C711.51 85.8103 706.951 87.5835 701.603 87.5835ZM748.318 282.637V104.302H783.783V126.087H785.387C786.963 122.597 789.243 119.051 792.227 115.448C795.266 111.789 799.207 108.749 804.048 106.329C808.945 103.852 815.025 102.614 822.287 102.614C831.744 102.614 840.469 105.09 848.463 110.044C856.456 114.942 862.845 122.344 867.63 132.251C872.415 142.103 874.807 154.459 874.807 169.32C874.807 183.787 872.471 196.003 867.799 205.966C863.183 215.874 856.878 223.389 848.885 228.511C840.948 233.578 832.053 236.111 822.202 236.111C815.222 236.111 809.283 234.957 804.386 232.649C799.545 230.341 795.576 227.442 792.48 223.952C789.384 220.405 787.02 216.831 785.387 213.228H784.289V282.637H748.318ZM783.529 169.151C783.529 176.863 784.599 183.59 786.738 189.332C788.877 195.074 791.973 199.549 796.026 202.758C800.079 205.91 805.005 207.486 810.803 207.486C816.657 207.486 821.611 205.882 825.664 202.673C829.717 199.408 832.785 194.905 834.868 189.163C837.007 183.365 838.077 176.694 838.077 169.151C838.077 161.664 837.035 155.078 834.952 149.393C832.87 143.707 829.802 139.26 825.749 136.051C821.696 132.843 816.714 131.238 810.803 131.238C804.949 131.238 799.995 132.786 795.942 135.882C791.945 138.978 788.877 143.369 786.738 149.055C784.599 154.74 783.529 161.439 783.529 169.151ZM927.012 61.0698L961.885 120.008H963.236L998.278 61.0698H1039.57L986.794 147.535L1040.75 234H998.7L963.236 174.977H961.885L926.421 234H884.539L938.664 147.535L885.552 61.0698H927.012Z" fill="#011D33"/>
<path d="M384.634 307.986C384.474 306.382 383.792 305.135 382.585 304.247C381.379 303.359 379.741 302.915 377.673 302.915C376.268 302.915 375.081 303.114 374.114 303.511C373.146 303.896 372.403 304.433 371.886 305.122C371.383 305.812 371.131 306.594 371.131 307.469C371.104 308.198 371.257 308.834 371.588 309.378C371.933 309.921 372.403 310.392 373 310.79C373.597 311.174 374.286 311.512 375.068 311.804C375.85 312.082 376.686 312.321 377.574 312.52L381.233 313.395C383.009 313.793 384.64 314.323 386.125 314.986C387.61 315.649 388.896 316.464 389.983 317.432C391.07 318.4 391.912 319.54 392.509 320.852C393.118 322.165 393.43 323.67 393.443 325.366C393.43 327.859 392.794 330.02 391.534 331.849C390.288 333.666 388.485 335.078 386.125 336.085C383.778 337.08 380.948 337.577 377.634 337.577C374.346 337.577 371.482 337.073 369.043 336.065C366.616 335.058 364.721 333.566 363.355 331.591C362.003 329.602 361.294 327.143 361.227 324.213H369.56C369.652 325.579 370.044 326.719 370.733 327.634C371.436 328.535 372.37 329.218 373.537 329.682C374.717 330.133 376.049 330.358 377.534 330.358C378.992 330.358 380.259 330.146 381.332 329.722C382.42 329.297 383.261 328.707 383.858 327.952C384.455 327.196 384.753 326.328 384.753 325.347C384.753 324.432 384.481 323.663 383.938 323.04C383.407 322.417 382.625 321.886 381.591 321.449C380.57 321.011 379.317 320.614 377.832 320.256L373.398 319.142C369.964 318.307 367.253 317.001 365.264 315.224C363.276 313.448 362.288 311.055 362.301 308.045C362.288 305.58 362.944 303.425 364.27 301.582C365.609 299.74 367.445 298.301 369.778 297.267C372.112 296.233 374.763 295.716 377.733 295.716C380.756 295.716 383.394 296.233 385.648 297.267C387.915 298.301 389.678 299.74 390.938 301.582C392.197 303.425 392.847 305.56 392.886 307.986H384.634ZM399.235 337V296.273H426.678V303.372H407.846V313.077H425.266V320.176H407.846V329.901H426.758V337H399.235ZM433.524 296.273H444.143L455.359 323.636H455.837L467.053 296.273H477.672V337H469.32V310.491H468.982L458.442 336.801H452.754L442.214 310.392H441.876V337H433.524V296.273ZM493.377 296.273V337H484.766V296.273H493.377ZM536.396 310.531H527.686C527.527 309.404 527.202 308.403 526.712 307.528C526.221 306.64 525.591 305.884 524.822 305.261C524.054 304.638 523.165 304.161 522.158 303.83C521.163 303.498 520.083 303.332 518.916 303.332C516.808 303.332 514.972 303.856 513.408 304.903C511.843 305.937 510.63 307.449 509.768 309.438C508.907 311.413 508.476 313.812 508.476 316.636C508.476 319.54 508.907 321.979 509.768 323.955C510.643 325.93 511.863 327.421 513.428 328.429C514.992 329.437 516.802 329.94 518.857 329.94C520.01 329.94 521.077 329.788 522.058 329.483C523.053 329.178 523.934 328.734 524.703 328.151C525.472 327.554 526.108 326.831 526.612 325.983C527.129 325.134 527.487 324.167 527.686 323.08L536.396 323.119C536.171 324.989 535.607 326.792 534.706 328.528C533.818 330.252 532.618 331.796 531.107 333.162C529.608 334.514 527.819 335.588 525.737 336.384C523.669 337.166 521.329 337.557 518.717 337.557C515.085 337.557 511.837 336.735 508.973 335.091C506.123 333.447 503.869 331.067 502.212 327.952C500.568 324.836 499.746 321.064 499.746 316.636C499.746 312.195 500.581 308.417 502.251 305.301C503.922 302.186 506.189 299.812 509.053 298.182C511.916 296.538 515.138 295.716 518.717 295.716C521.077 295.716 523.265 296.047 525.28 296.71C527.308 297.373 529.105 298.341 530.669 299.614C532.233 300.873 533.506 302.418 534.487 304.247C535.482 306.077 536.118 308.171 536.396 310.531ZM579.997 316.636C579.997 321.078 579.155 324.856 577.472 327.972C575.801 331.087 573.521 333.467 570.631 335.111C567.754 336.741 564.519 337.557 560.926 337.557C557.307 337.557 554.059 336.735 551.182 335.091C548.305 333.447 546.031 331.067 544.361 327.952C542.69 324.836 541.855 321.064 541.855 316.636C541.855 312.195 542.69 308.417 544.361 305.301C546.031 302.186 548.305 299.812 551.182 298.182C554.059 296.538 557.307 295.716 560.926 295.716C564.519 295.716 567.754 296.538 570.631 298.182C573.521 299.812 575.801 302.186 577.472 305.301C579.155 308.417 579.997 312.195 579.997 316.636ZM571.267 316.636C571.267 313.759 570.836 311.333 569.974 309.358C569.126 307.383 567.926 305.884 566.375 304.864C564.824 303.843 563.008 303.332 560.926 303.332C558.845 303.332 557.028 303.843 555.477 304.864C553.926 305.884 552.72 307.383 551.858 309.358C551.009 311.333 550.585 313.759 550.585 316.636C550.585 319.513 551.009 321.939 551.858 323.915C552.72 325.89 553.926 327.388 555.477 328.409C557.028 329.43 558.845 329.94 560.926 329.94C563.008 329.94 564.824 329.43 566.375 328.409C567.926 327.388 569.126 325.89 569.974 323.915C570.836 321.939 571.267 319.513 571.267 316.636ZM620.441 296.273V337H613.004L595.285 311.366H594.987V337H586.376V296.273H593.933L611.512 321.886H611.87V296.273H620.441ZM641.993 337H627.555V296.273H642.112C646.209 296.273 649.735 297.088 652.692 298.719C655.648 300.336 657.922 302.663 659.513 305.699C661.117 308.735 661.919 312.367 661.919 316.597C661.919 320.839 661.117 324.485 659.513 327.534C657.922 330.583 655.635 332.923 652.652 334.554C649.682 336.185 646.129 337 641.993 337ZM636.166 329.622H641.635C644.18 329.622 646.321 329.171 648.058 328.27C649.808 327.355 651.121 325.943 651.996 324.034C652.884 322.112 653.328 319.633 653.328 316.597C653.328 313.587 652.884 311.128 651.996 309.219C651.121 307.31 649.815 305.904 648.078 305.003C646.341 304.101 644.2 303.651 641.655 303.651H636.166V329.622ZM693.454 296.273H702.065V322.722C702.065 325.691 701.355 328.29 699.937 330.517C698.531 332.744 696.563 334.481 694.031 335.727C691.498 336.96 688.549 337.577 685.181 337.577C681.8 337.577 678.844 336.96 676.312 335.727C673.78 334.481 671.811 332.744 670.406 330.517C669 328.29 668.298 325.691 668.298 322.722V296.273H676.908V321.986C676.908 323.537 677.246 324.916 677.923 326.122C678.612 327.329 679.58 328.277 680.826 328.966C682.072 329.655 683.524 330 685.181 330C686.852 330 688.303 329.655 689.536 328.966C690.782 328.277 691.744 327.329 692.42 326.122C693.109 324.916 693.454 323.537 693.454 321.986V296.273ZM745.084 310.531H736.374C736.214 309.404 735.89 308.403 735.399 307.528C734.909 306.64 734.279 305.884 733.51 305.261C732.741 304.638 731.853 304.161 730.845 303.83C729.851 303.498 728.77 303.332 727.604 303.332C725.496 303.332 723.66 303.856 722.095 304.903C720.531 305.937 719.318 307.449 718.456 309.438C717.594 311.413 717.163 313.812 717.163 316.636C717.163 319.54 717.594 321.979 718.456 323.955C719.331 325.93 720.551 327.421 722.115 328.429C723.679 329.437 725.489 329.94 727.544 329.94C728.697 329.94 729.765 329.788 730.746 329.483C731.74 329.178 732.622 328.734 733.391 328.151C734.16 327.554 734.796 326.831 735.3 325.983C735.817 325.134 736.175 324.167 736.374 323.08L745.084 323.119C744.858 324.989 744.295 326.792 743.393 328.528C742.505 330.252 741.305 331.796 739.794 333.162C738.296 334.514 736.506 335.588 734.425 336.384C732.357 337.166 730.017 337.557 727.405 337.557C723.772 337.557 720.524 336.735 717.661 335.091C714.81 333.447 712.556 331.067 710.899 327.952C709.255 324.836 708.433 321.064 708.433 316.636C708.433 312.195 709.268 308.417 710.939 305.301C712.609 302.186 714.876 299.812 717.74 298.182C720.604 296.538 723.825 295.716 727.405 295.716C729.765 295.716 731.952 296.047 733.967 296.71C735.996 297.373 737.792 298.341 739.357 299.614C740.921 300.873 742.194 302.418 743.175 304.247C744.169 306.077 744.805 308.171 745.084 310.531ZM749.707 303.372V296.273H783.156V303.372H770.688V337H762.176V303.372H749.707ZM824.232 316.636C824.232 321.078 823.39 324.856 821.706 327.972C820.036 331.087 817.755 333.467 814.865 335.111C811.988 336.741 808.753 337.557 805.161 337.557C801.541 337.557 798.293 336.735 795.416 335.091C792.539 333.447 790.266 331.067 788.595 327.952C786.925 324.836 786.089 321.064 786.089 316.636C786.089 312.195 786.925 308.417 788.595 305.301C790.266 302.186 792.539 299.812 795.416 298.182C798.293 296.538 801.541 295.716 805.161 295.716C808.753 295.716 811.988 296.538 814.865 298.182C817.755 299.812 820.036 302.186 821.706 305.301C823.39 308.417 824.232 312.195 824.232 316.636ZM815.501 316.636C815.501 313.759 815.071 311.333 814.209 309.358C813.36 307.383 812.161 305.884 810.609 304.864C809.058 303.843 807.242 303.332 805.161 303.332C803.079 303.332 801.263 303.843 799.712 304.864C798.161 305.884 796.954 307.383 796.092 309.358C795.244 311.333 794.82 313.759 794.82 316.636C794.82 319.513 795.244 321.939 796.092 323.915C796.954 325.89 798.161 327.388 799.712 328.409C801.263 329.43 803.079 329.94 805.161 329.94C807.242 329.94 809.058 329.43 810.609 328.409C812.161 327.388 813.36 325.89 814.209 323.915C815.071 321.939 815.501 319.513 815.501 316.636ZM830.61 337V296.273H846.678C849.754 296.273 852.379 296.823 854.553 297.923C856.741 299.01 858.405 300.555 859.545 302.557C860.698 304.545 861.275 306.885 861.275 309.577C861.275 312.281 860.692 314.608 859.525 316.557C858.358 318.492 856.668 319.977 854.454 321.011C852.253 322.045 849.588 322.562 846.46 322.562H835.701V315.642H845.067C846.711 315.642 848.077 315.417 849.164 314.966C850.251 314.515 851.06 313.839 851.59 312.938C852.134 312.036 852.406 310.916 852.406 309.577C852.406 308.224 852.134 307.084 851.59 306.156C851.06 305.228 850.245 304.526 849.144 304.048C848.057 303.558 846.685 303.312 845.028 303.312H839.221V337H830.61ZM852.604 318.466L862.727 337H853.221L843.317 318.466H852.604ZM384.634 377.986C384.474 376.382 383.792 375.135 382.585 374.247C381.379 373.359 379.741 372.915 377.673 372.915C376.268 372.915 375.081 373.114 374.114 373.511C373.146 373.896 372.403 374.433 371.886 375.122C371.383 375.812 371.131 376.594 371.131 377.469C371.104 378.198 371.257 378.834 371.588 379.378C371.933 379.921 372.403 380.392 373 380.79C373.597 381.174 374.286 381.512 375.068 381.804C375.85 382.082 376.686 382.321 377.574 382.52L381.233 383.395C383.009 383.793 384.64 384.323 386.125 384.986C387.61 385.649 388.896 386.464 389.983 387.432C391.07 388.4 391.912 389.54 392.509 390.852C393.118 392.165 393.43 393.67 393.443 395.366C393.43 397.859 392.794 400.02 391.534 401.849C390.288 403.666 388.485 405.078 386.125 406.085C383.778 407.08 380.948 407.577 377.634 407.577C374.346 407.577 371.482 407.073 369.043 406.065C366.616 405.058 364.721 403.566 363.355 401.591C362.003 399.602 361.294 397.143 361.227 394.213H369.56C369.652 395.579 370.044 396.719 370.733 397.634C371.436 398.535 372.37 399.218 373.537 399.682C374.717 400.133 376.049 400.358 377.534 400.358C378.992 400.358 380.259 400.146 381.332 399.722C382.42 399.297 383.261 398.707 383.858 397.952C384.455 397.196 384.753 396.328 384.753 395.347C384.753 394.432 384.481 393.663 383.938 393.04C383.407 392.417 382.625 391.886 381.591 391.449C380.57 391.011 379.317 390.614 377.832 390.256L373.398 389.142C369.964 388.307 367.253 387.001 365.264 385.224C363.276 383.448 362.288 381.055 362.301 378.045C362.288 375.58 362.944 373.425 364.27 371.582C365.609 369.74 367.445 368.301 369.778 367.267C372.112 366.233 374.763 365.716 377.733 365.716C380.756 365.716 383.394 366.233 385.648 367.267C387.915 368.301 389.678 369.74 390.938 371.582C392.197 373.425 392.847 375.56 392.886 377.986H384.634ZM435.17 380.531H426.46C426.3 379.404 425.976 378.403 425.485 377.528C424.995 376.64 424.365 375.884 423.596 375.261C422.827 374.638 421.939 374.161 420.931 373.83C419.937 373.498 418.856 373.332 417.69 373.332C415.582 373.332 413.746 373.856 412.181 374.903C410.617 375.937 409.404 377.449 408.542 379.438C407.68 381.413 407.249 383.812 407.249 386.636C407.249 389.54 407.68 391.979 408.542 393.955C409.417 395.93 410.637 397.421 412.201 398.429C413.765 399.437 415.575 399.94 417.63 399.94C418.783 399.94 419.851 399.788 420.832 399.483C421.826 399.178 422.708 398.734 423.477 398.151C424.246 397.554 424.882 396.831 425.386 395.983C425.903 395.134 426.261 394.167 426.46 393.08L435.17 393.119C434.944 394.989 434.381 396.792 433.479 398.528C432.591 400.252 431.391 401.796 429.88 403.162C428.382 404.514 426.592 405.588 424.511 406.384C422.442 407.166 420.103 407.557 417.491 407.557C413.858 407.557 410.61 406.735 407.746 405.091C404.896 403.447 402.642 401.067 400.985 397.952C399.341 394.836 398.519 391.064 398.519 386.636C398.519 382.195 399.354 378.417 401.025 375.301C402.695 372.186 404.962 369.812 407.826 368.182C410.69 366.538 413.911 365.716 417.491 365.716C419.851 365.716 422.038 366.047 424.053 366.71C426.082 367.373 427.878 368.341 429.442 369.614C431.007 370.873 432.28 372.418 433.261 374.247C434.255 376.077 434.891 378.171 435.17 380.531ZM441.344 407V366.273H449.955V383.077H467.435V366.273H476.026V407H467.435V390.176H449.955V407H441.344ZM520.552 386.636C520.552 391.078 519.71 394.856 518.026 397.972C516.356 401.087 514.076 403.467 511.185 405.111C508.308 406.741 505.074 407.557 501.481 407.557C497.862 407.557 494.613 406.735 491.737 405.091C488.86 403.447 486.586 401.067 484.915 397.952C483.245 394.836 482.41 391.064 482.41 386.636C482.41 382.195 483.245 378.417 484.915 375.301C486.586 372.186 488.86 369.812 491.737 368.182C494.613 366.538 497.862 365.716 501.481 365.716C505.074 365.716 508.308 366.538 511.185 368.182C514.076 369.812 516.356 372.186 518.026 375.301C519.71 378.417 520.552 382.195 520.552 386.636ZM511.822 386.636C511.822 383.759 511.391 381.333 510.529 379.358C509.681 377.383 508.481 375.884 506.93 374.864C505.379 373.843 503.562 373.332 501.481 373.332C499.399 373.332 497.583 373.843 496.032 374.864C494.481 375.884 493.274 377.383 492.413 379.358C491.564 381.333 491.14 383.759 491.14 386.636C491.14 389.513 491.564 391.939 492.413 393.915C493.274 395.89 494.481 397.388 496.032 398.409C497.583 399.43 499.399 399.94 501.481 399.94C503.562 399.94 505.379 399.43 506.93 398.409C508.481 397.388 509.681 395.89 510.529 393.915C511.391 391.939 511.822 389.513 511.822 386.636ZM564.357 386.636C564.357 391.078 563.515 394.856 561.831 397.972C560.161 401.087 557.88 403.467 554.99 405.111C552.113 406.741 548.878 407.557 545.286 407.557C541.666 407.557 538.418 406.735 535.541 405.091C532.664 403.447 530.391 401.067 528.72 397.952C527.05 394.836 526.214 391.064 526.214 386.636C526.214 382.195 527.05 378.417 528.72 375.301C530.391 372.186 532.664 369.812 535.541 368.182C538.418 366.538 541.666 365.716 545.286 365.716C548.878 365.716 552.113 366.538 554.99 368.182C557.88 369.812 560.161 372.186 561.831 375.301C563.515 378.417 564.357 382.195 564.357 386.636ZM555.626 386.636C555.626 383.759 555.196 381.333 554.334 379.358C553.485 377.383 552.286 375.884 550.734 374.864C549.183 373.843 547.367 373.332 545.286 373.332C543.204 373.332 541.388 373.843 539.837 374.864C538.286 375.884 537.079 377.383 536.217 379.358C535.369 381.333 534.945 383.759 534.945 386.636C534.945 389.513 535.369 391.939 536.217 393.915C537.079 395.89 538.286 397.388 539.837 398.409C541.388 399.43 543.204 399.94 545.286 399.94C547.367 399.94 549.183 399.43 550.734 398.409C552.286 397.388 553.485 395.89 554.334 393.915C555.196 391.939 555.626 389.513 555.626 386.636ZM570.735 407V366.273H579.346V399.901H596.806V407H570.735Z" fill="#011D33"/>
</svg>
